<?xml version="1.0" encoding="UTF-8" standalone="no"?>
<!-- Created with Inkscape (http://www.inkscape.org/) -->

<svg
   xmlns:dc="http://purl.org/dc/elements/1.1/"
   xmlns:cc="http://creativecommons.org/ns#"
   xmlns:rdf="http://www.w3.org/1999/02/22-rdf-syntax-ns#"
   xmlns:svg="http://www.w3.org/2000/svg"
   xmlns="http://www.w3.org/2000/svg"
   xmlns:sodipodi="http://sodipodi.sourceforge.net/DTD/sodipodi-0.dtd"
   xmlns:inkscape="http://www.inkscape.org/namespaces/inkscape"
   width="744.09448819"
   height="1052.3622047"
   id="svg2"
   version="1.1"
   inkscape:version="0.48.4 r9939"
   sodipodi:docname="bear.svg"
   inkscape:export-filename="C:\Users\David\workspace\WeekOfAwesome\core\assets\toys\bear.png"
   inkscape:export-xdpi="4.2008343"
   inkscape:export-ydpi="4.2008343">
  <defs
     id="defs4" />
  <sodipodi:namedview
     id="base"
     pagecolor="#ffffff"
     bordercolor="#666666"
     borderopacity="1.0"
     inkscape:pageopacity="0.0"
     inkscape:pageshadow="2"
     inkscape:zoom="0.24748737"
     inkscape:cx="419.42491"
     inkscape:cy="691.64917"
     inkscape:document-units="px"
     inkscape:current-layer="layer1"
     showgrid="false"
     inkscape:window-width="1920"
     inkscape:window-height="1017"
     inkscape:window-x="1912"
     inkscape:window-y="-8"
     inkscape:window-maximized="1" />
  <metadata
     id="metadata7">
    <rdf:RDF>
      <cc:Work
         rdf:about="">
        <dc:format>image/svg+xml</dc:format>
        <dc:type
           rdf:resource="http://purl.org/dc/dcmitype/StillImage" />
        <dc:title></dc:title>
      </cc:Work>
    </rdf:RDF>
  </metadata>
  <g
     inkscape:label="Layer 1"
     inkscape:groupmode="layer"
     id="layer1">
    <path
       sodipodi:type="arc"
       style="fill:#ff7f2a;fill-opacity:1;stroke:#222222;stroke-width:15.78477192;stroke-linecap:round;stroke-linejoin:round;stroke-miterlimit:4;stroke-opacity:1;stroke-dasharray:none"
       id="path3759-7"
       sodipodi:cx="552.85712"
       sodipodi:cy="439.50504"
       sodipodi:rx="61.42857"
       sodipodi:ry="61.42857"
       d="m 614.28569,439.50504 a 61.42857,61.42857 0 1 1 -122.85714,0 61.42857,61.42857 0 1 1 122.85714,0 z"
       transform="matrix(0.39951795,-0.89397106,-1.2124514,-0.54184765,822.84235,1376.1359)" />
    <path
       sodipodi:type="arc"
       style="fill:#ff7f2a;fill-opacity:1;stroke:#222222;stroke-width:20.13267708;stroke-linecap:round;stroke-linejoin:round;stroke-miterlimit:4;stroke-opacity:1;stroke-dasharray:none"
       id="path2985"
       sodipodi:cx="381.42856"
       sodipodi:cy="476.64789"
       sodipodi:rx="187.14285"
       sodipodi:ry="187.14285"
       d="m 568.57141,476.64789 a 187.14285,187.14285 0 1 1 -374.2857,0 187.14285,187.14285 0 1 1 374.2857,0 z"
       transform="matrix(0.68183246,-0.48902678,-0.4482423,-0.85087864,360.24809,1105.7718)" />
    <path
       transform="matrix(-0.23824969,1.8607642,0.93439613,0.20524388,262.10999,-720.73433)"
       sodipodi:type="arc"
       style="fill:#ff7f2a;fill-opacity:1;stroke:#222222;stroke-width:13.4628973;stroke-linecap:round;stroke-linejoin:round;stroke-miterlimit:4;stroke-opacity:1;stroke-dasharray:none"
       id="path3759-1-4"
       sodipodi:cx="552.85712"
       sodipodi:cy="439.50504"
       sodipodi:rx="61.42857"
       sodipodi:ry="61.42857"
       d="m 614.28569,439.50504 a 61.42857,61.42857 0 1 1 -122.85714,0 61.42857,61.42857 0 1 1 122.85714,0 z"
       inkscape:transform-center-x="32.528728"
       inkscape:transform-center-y="-24.806464" />
    <path
       sodipodi:type="arc"
       style="fill:#ff7f2a;fill-opacity:1;stroke:#222222;stroke-width:15.78477192;stroke-linecap:round;stroke-linejoin:round;stroke-miterlimit:4;stroke-opacity:1;stroke-dasharray:none"
       id="path3759-7-4"
       sodipodi:cx="552.85712"
       sodipodi:cy="439.50504"
       sodipodi:rx="61.42857"
       sodipodi:ry="61.42857"
       d="m 614.28569,439.50504 a 61.42857,61.42857 0 1 1 -122.85714,0 61.42857,61.42857 0 1 1 122.85714,0 z"
       transform="matrix(0.97577729,-0.08159359,-0.11066159,-1.3234013,-167.53246,1319.7108)" />
    <path
       transform="matrix(-0.64604722,-1.7612013,-0.92384899,0.24844359,1016.4254,1349.9346)"
       sodipodi:type="arc"
       style="fill:#ff7f2a;fill-opacity:1;stroke:#222222;stroke-width:13.46289635;stroke-linecap:round;stroke-linejoin:round;stroke-miterlimit:4;stroke-opacity:1;stroke-dasharray:none"
       id="path3759-1"
       sodipodi:cx="552.85712"
       sodipodi:cy="439.50504"
       sodipodi:rx="61.42857"
       sodipodi:ry="61.42857"
       d="m 614.28569,439.50504 a 61.42857,61.42857 0 1 1 -122.85714,0 61.42857,61.42857 0 1 1 122.85714,0 z" />
    <path
       sodipodi:type="arc"
       style="fill:#ff9955;fill-opacity:1;stroke:#222222;stroke-width:18.22400093;stroke-linecap:round;stroke-linejoin:round;stroke-miterlimit:4;stroke-opacity:1;stroke-dasharray:none"
       id="path3759-0"
       sodipodi:cx="552.85712"
       sodipodi:cy="439.50504"
       sodipodi:rx="61.42857"
       sodipodi:ry="61.42857"
       d="m 614.28569,439.50504 a 61.42857,61.42857 0 1 1 -122.85714,0 61.42857,61.42857 0 1 1 122.85714,0 z"
       transform="matrix(-0.79361374,-0.07845541,-0.07845541,0.79361374,776.99278,-21.330793)" />
    <path
       sodipodi:type="arc"
       style="fill:#ff9955;fill-opacity:1;stroke:#222222;stroke-width:18.22400093;stroke-linecap:round;stroke-linejoin:round;stroke-miterlimit:4;stroke-opacity:1;stroke-dasharray:none"
       id="path3759-0-9"
       sodipodi:cx="552.85712"
       sodipodi:cy="439.50504"
       sodipodi:rx="61.42857"
       sodipodi:ry="61.42857"
       d="m 614.28569,439.50504 a 61.42857,61.42857 0 1 1 -122.85714,0 61.42857,61.42857 0 1 1 122.85714,0 z"
       transform="matrix(-0.79361374,-0.07845541,-0.07845541,0.79361374,968.05489,-8.1848372)" />
    <path
       sodipodi:type="arc"
       style="fill:#ff7f2a;fill-opacity:1;stroke:#222222;stroke-width:18.22400093;stroke-linecap:round;stroke-linejoin:round;stroke-miterlimit:4;stroke-opacity:1;stroke-dasharray:none"
       id="path2987"
       sodipodi:cx="460"
       sodipodi:cy="320.93362"
       sodipodi:rx="120"
       sodipodi:ry="120"
       d="m 580,320.93362 a 120,120 0 1 1 -240,0 120,120 0 1 1 240,0 z"
       transform="matrix(-0.99514904,-0.09837887,-0.09837887,0.99514904,883.33704,113.63553)" />
    <path
       sodipodi:type="arc"
       style="fill:#ffe6d5;fill-opacity:1;stroke:#222222;stroke-width:18.22400093;stroke-linecap:round;stroke-linejoin:round;stroke-miterlimit:4;stroke-opacity:1;stroke-dasharray:none"
       id="path3759-0-8"
       sodipodi:cx="552.85712"
       sodipodi:cy="439.50504"
       sodipodi:rx="61.42857"
       sodipodi:ry="61.42857"
       d="m 614.28569,439.50504 a 61.42857,61.42857 0 1 1 -122.85714,0 61.42857,61.42857 0 1 1 122.85714,0 z"
       transform="matrix(-0.79361374,-0.07845541,-0.07845541,0.79361374,862.45356,130.67124)" />
    <path
       sodipodi:type="arc"
       style="fill:#000000;fill-opacity:1;stroke:#222222;stroke-width:18.22400093;stroke-linecap:round;stroke-linejoin:round;stroke-miterlimit:4;stroke-opacity:1;stroke-dasharray:none"
       id="path3759-0-82"
       sodipodi:cx="552.85712"
       sodipodi:cy="439.50504"
       sodipodi:rx="61.42857"
       sodipodi:ry="61.42857"
       d="m 614.28569,439.50504 a 61.42857,61.42857 0 1 1 -122.85714,0 61.42857,61.42857 0 1 1 122.85714,0 z"
       transform="matrix(-0.29309461,-0.02897487,-0.03028973,0.30639515,609.95342,258.02858)" />
    <path
       sodipodi:type="arc"
       style="fill:#000000;fill-opacity:1;stroke:#222222;stroke-width:18.22400093;stroke-linecap:round;stroke-linejoin:round;stroke-miterlimit:4;stroke-opacity:1;stroke-dasharray:none"
       id="path3759-0-82-4"
       sodipodi:cx="552.85712"
       sodipodi:cy="439.50504"
       sodipodi:rx="61.42857"
       sodipodi:ry="61.42857"
       d="m 614.28569,439.50504 a 61.42857,61.42857 0 1 1 -122.85714,0 61.42857,61.42857 0 1 1 122.85714,0 z"
       transform="matrix(-0.29309461,-0.02897487,-0.03028973,0.30639515,535.46496,247.5791)" />
    <path
       sodipodi:type="arc"
       style="fill:#000000;fill-opacity:1;stroke:#222222;stroke-width:18.22400093;stroke-linecap:round;stroke-linejoin:round;stroke-miterlimit:4;stroke-opacity:1;stroke-dasharray:none"
       id="path3759-0-8-5"
       sodipodi:cx="552.85712"
       sodipodi:cy="439.50504"
       sodipodi:rx="61.42857"
       sodipodi:ry="61.42857"
       d="m 614.28569,439.50504 a 61.42857,61.42857 0 1 1 -122.85714,0 61.42857,61.42857 0 1 1 122.85714,0 z"
       transform="matrix(-0.26962197,-0.0266544,-0.0266544,0.26962197,551.68066,315.27)" />
  </g>
</svg>
