<?xml version="1.0" encoding="UTF-8" standalone="no"?>
<!-- Created with Inkscape (http://www.inkscape.org/) -->

<svg
   xmlns:dc="http://purl.org/dc/elements/1.1/"
   xmlns:cc="http://creativecommons.org/ns#"
   xmlns:rdf="http://www.w3.org/1999/02/22-rdf-syntax-ns#"
   xmlns:svg="http://www.w3.org/2000/svg"
   xmlns="http://www.w3.org/2000/svg"
   xmlns:xlink="http://www.w3.org/1999/xlink"
   xmlns:sodipodi="http://sodipodi.sourceforge.net/DTD/sodipodi-0.dtd"
   xmlns:inkscape="http://www.inkscape.org/namespaces/inkscape"
   width="744.09448819"
   height="1052.3622047"
   id="svg2"
   version="1.1"
   inkscape:version="0.48.4 r9939"
   inkscape:export-filename="C:\Users\David\workspace\WeekOfAwesome\core\assets\tools\jumpLeft.png"
   inkscape:export-xdpi="6.5560865"
   inkscape:export-ydpi="6.5560865"
   sodipodi:docname="New document 1">
  <defs
     id="defs4">
    <linearGradient
       id="linearGradient3862">
      <stop
         style="stop-color:#fff6d1;stop-opacity:1;"
         offset="0"
         id="stop3864" />
      <stop
         id="stop3880"
         offset="0.64090103"
         style="stop-color:#d7cda8;stop-opacity:1;" />
      <stop
         style="stop-color:#afa580;stop-opacity:1;"
         offset="1"
         id="stop3866" />
    </linearGradient>
    <linearGradient
       inkscape:collect="always"
       xlink:href="#linearGradient3862"
       id="linearGradient3868"
       x1="519.82159"
       y1="769.93842"
       x2="391.33447"
       y2="694.49249"
       gradientUnits="userSpaceOnUse"
       spreadMethod="pad"
       gradientTransform="matrix(0.96698118,0.25484778,-0.25484778,0.96698118,294.2638,-92.088895)" />
  </defs>
  <sodipodi:namedview
     id="base"
     pagecolor="#ffffff"
     bordercolor="#666666"
     borderopacity="1.0"
     inkscape:pageopacity="0.0"
     inkscape:pageshadow="2"
     inkscape:zoom="0.98994949"
     inkscape:cx="592.05433"
     inkscape:cy="430.32077"
     inkscape:document-units="px"
     inkscape:current-layer="layer1"
     showgrid="false"
     inkscape:window-width="1920"
     inkscape:window-height="1017"
     inkscape:window-x="1912"
     inkscape:window-y="-8"
     inkscape:window-maximized="1" />
  <metadata
     id="metadata7">
    <rdf:RDF>
      <cc:Work
         rdf:about="">
        <dc:format>image/svg+xml</dc:format>
        <dc:type
           rdf:resource="http://purl.org/dc/dcmitype/StillImage" />
        <dc:title></dc:title>
      </cc:Work>
    </rdf:RDF>
  </metadata>
  <g
     inkscape:label="Layer 1"
     inkscape:groupmode="layer"
     id="layer1">
    <rect
       style="fill:none;stroke:none"
       id="rect3878"
       width="828.57141"
       height="835.71429"
       x="-110.75562"
       y="44.74942" />
    <path
       style="fill:url(#linearGradient3868);fill-opacity:1;stroke:none"
       d="M 618.03125 472.75 C 597.64892 476.74295 578.46936 485.742 557.71875 488.03125 C 547.26848 489.03927 536.49261 486.60989 526.28125 489.8125 C 517.54637 492.64747 510.97601 499.90256 506.79677 507.84394 C 500.57725 519.64646 498.9252 533.12599 497.66232 546.22054 C 495.25821 569.98992 491.29837 593.90267 482.0958 616.08527 C 472.19133 639.78361 460.21269 662.52867 448.78511 685.50946 C 437.09622 708.79242 424.53948 731.62527 412.59045 754.77277 C 409.90371 760.42408 407.46045 766.56822 407.90625 772.9375 C 409.39755 778.06108 416.14388 780.25596 420.70202 777.89899 C 425.29142 775.38922 429.99786 773.07203 434.39609 770.21859 C 448.07198 761.73253 460.75394 751.38213 475.81825 745.35041 C 480.49239 743.41399 486.28945 742.50796 490.74251 745.48125 C 495.17803 748.47726 497.18336 753.95519 497.28244 759.14042 C 498.19587 769.60161 497.37129 780.34948 493.8079 790.27922 C 490.24857 799.64737 482.66298 806.96137 474.16012 811.97727 C 461.41273 820.10718 447.33604 826.00908 432.88076 830.33983 C 419.57319 834.04247 405.35786 835.10101 391.80537 832.08304 C 370.39397 827.9529 350.09469 819.1568 328.40625 816.3125 C 313.44079 814.40869 297.7767 814.83372 283.60001 820.45297 C 271.42551 825.35437 261.39992 834.0889 250.06387 840.50681 C 241.89201 845.57701 233.03204 849.41203 224.73545 854.25092 C 222.18282 855.86609 219.49173 858.72773 220.46875 862 C 221.39484 865.67421 224.71613 868.14614 228.19015 869.21934 C 237.3588 873.2944 247.50398 873.91009 257.25484 875.69915 C 270.83158 877.76424 284.45847 879.5308 298.15625 880.5625 C 309.79603 881.50995 321.48436 880.91932 333.14655 880.99276 C 348.54978 880.87889 363.96536 881.02304 379.33792 882.07942 C 402.11218 883.41027 424.93466 883.26384 447.73741 883.21875 C 465.57452 883.20867 483.40769 883.69753 501.24368 883.77317 C 530.17038 883.72559 559.03816 881.60852 587.9462 880.8762 C 600.95818 880.6168 613.96781 881.11327 626.97493 881.34375 C 642.2576 881.39303 657.6447 879.69495 672.25247 875.05657 C 682.19494 872.16173 692.22144 869.11242 701.3037 864.04381 C 707.40221 860.09952 711.24761 853.34439 712.51901 846.28733 C 714.82362 835.58632 714.35224 824.55288 714.00545 813.68589 C 713.07756 795.78805 710.59627 777.91359 705.83376 760.61816 C 701.89932 746.6181 695.87247 733.13801 687.36192 721.3072 C 675.69007 704.53636 660.93151 690.29541 647.48264 675.00337 C 637.22047 663.53735 627.346 651.55994 619.75 638.125 C 610.88438 621.78001 607.57922 602.64902 609.71153 584.22578 C 611.50237 563.61671 617.37659 543.6894 622.99828 523.87385 C 626.61739 510.95765 630.41742 497.91135 631.10586 484.4432 C 630.51191 478.04426 624.59559 472.33102 618.03125 472.75 z "
       id="path3840"
       inkscape:connector-curvature="0" />
    <path
       style="fill:#fff6d1;fill-opacity:1;stroke:none"
       d="m 347.82899,446.51934 c -21.24525,25.03356 -39.64919,52.27837 -58.30192,79.2485 -14.97497,22.01806 -29.59807,44.60241 -39.23787,69.55269 -10.23986,26.47673 -15.23366,55.0915 -13.6052,83.47768 0.89391,19.23309 3.17358,38.41772 7.02144,57.28643 3.54609,16.44959 8.6998,32.65102 16.59002,47.56116 5.47591,10.33687 11.8769,20.21702 19.36823,29.21062 4.24476,5.25584 9.48812,9.8896 15.84859,12.37297 6.41775,2.48467 13.27211,3.67358 20.09497,4.36129 9.3853,0.80264 19.00516,0.6242 28.08076,-2.14723 7.97658,-2.21666 15.28873,-6.1829 22.44801,-10.24659 20.26805,-11.6149 38.71893,-26.19123 55.63929,-42.24727 21.64368,-20.57483 40.87265,-43.47308 61.07769,-65.4179 20.96514,-22.89082 42.57202,-45.2425 62.1478,-69.36038 19.1026,-24.02572 35.99833,-49.67972 53.52463,-74.84911 12.69833,-18.54545 25.39511,-37.11607 36.99795,-56.3736 7.91495,-13.65862 14.21696,-28.47698 16.60523,-44.16524 3.10853,-19.8138 -0.0484,-40.69633 -9.63641,-58.38196 -7.28645,-13.77982 -18.24024,-25.95888 -32.18118,-33.18966 -12.77819,-6.54779 -27.24385,-8.74721 -41.43956,-9.44084 -17.23619,-0.97926 -34.50788,0.18403 -51.67568,1.72169 -29.85386,3.01245 -59.53347,8.96595 -87.73858,19.33548 -19.2013,7.27349 -37.0481,18.1257 -52.23888,31.95039 -10.4949,9.19179 -20.13564,19.31458 -29.38933,29.74088 z"
       id="path2989"
       inkscape:connector-curvature="0" />
    <path
       inkscape:connector-curvature="0"
       style="fill:#ffeb9d;fill-opacity:1;stroke:none"
       d="m 483.59797,401.59756 c -13.4744,3.35533 -27.08099,6.37986 -40.12298,11.22489 -13.90933,5.13595 -26.93409,12.54597 -38.69571,21.55378 -6.32499,4.83283 -12.34115,10.06774 -18.04834,15.61598 -8.04773,7.69298 -15.55636,15.9406 -22.64411,24.52235 -8.36548,10.14991 -16.16841,20.75175 -23.59929,31.60147 -11.95278,17.55886 -23.65686,35.28586 -35.36271,53.00998 -9.87179,14.9796 -19.75587,29.95598 -29.15759,45.23711 -6.35892,10.40651 -12.34936,21.06319 -17.3727,32.18489 -4.19989,9.15877 -7.66431,18.68852 -9.80595,28.5464 -1.42052,6.30363 -2.10255,12.75535 -2.30855,19.20849 -0.093,4.49805 -0.10243,9.00079 0.16446,13.49475 0.26724,5.6029 0.77119,11.19231 1.31512,16.77408 0.88566,8.41278 2.09963,16.78844 3.39738,25.14603 1.62339,9.79232 3.6274,19.52169 6.04606,29.14883 0.77302,3.20241 1.82567,6.33126 2.81076,9.47332 2.466,7.14147 5.30111,14.26492 9.63949,20.49921 2.52332,3.58551 5.3057,6.99132 8.44824,10.05443 8.91332,8.81413 20.24521,15.23669 32.48997,18.01755 7.69091,1.73596 15.66091,2.15141 23.50158,1.36861 12.11596,-1.16954 23.897,-4.97323 34.69328,-10.53956 12.80963,-6.54856 24.44278,-15.18459 35.20483,-24.68361 9.2296,-8.19551 17.62977,-17.26276 25.94073,-26.37195 10.5108,-11.6164 20.6231,-23.59636 31.49032,-34.88735 7.98516,-8.40908 16.03068,-16.76007 24.09575,-25.09241 11.53042,-11.99723 23.12984,-23.9309 34.44489,-36.13243 6.60738,-7.22729 13.30658,-14.37729 19.60617,-21.87795 6.1603,-7.24726 11.90643,-14.83383 17.60839,-22.4432 6.99701,-9.53685 13.79658,-19.21586 20.48795,-28.96906 12.89496,-18.69937 25.71951,-37.4511 38.14331,-56.4677 6.02375,-9.38523 12.04363,-18.82186 16.846,-28.9062 3.87856,-8.42175 6.73507,-17.34371 8.08634,-26.52867 1.10273,-6.68851 1.31526,-13.51851 0.79634,-20.27327 -0.59381,-7.50799 -2.18661,-14.94102 -4.86034,-21.98678 -3.58048,-9.56955 -8.85641,-18.53732 -15.66716,-26.16708 -5.64025,-6.25921 -12.45378,-11.53203 -20.177,-14.96106 -6.74634,-3.05592 -14.01128,-4.76245 -21.31585,-5.82616 -8.84243,-1.34984 -17.81245,-1.4572 -26.73905,-1.50977 -12.98442,0.0633 -25.96054,0.92484 -38.85663,2.4231 -10.21166,1.24357 -20.40616,2.64544 -30.5234,4.51896 z"
       id="path2989-0" />
    <path
       sodipodi:type="arc"
       style="fill:#ff3131;fill-opacity:1;stroke:#222222;stroke-width:0;stroke-linecap:round;stroke-linejoin:round;stroke-miterlimit:4;stroke-opacity:1;stroke-dasharray:none"
       id="path3759"
       sodipodi:cx="277.28687"
       sodipodi:cy="500.81888"
       sodipodi:rx="61.114227"
       sodipodi:ry="47.477169"
       d="m 338.40109,500.81888 a 61.114227,47.477169 0 1 1 -122.22845,0 61.114227,47.477169 0 1 1 122.22845,0 z"
       transform="matrix(0.34506496,-0.37878824,0.48758913,0.44417937,81.333612,372.90174)" />
    <path
       sodipodi:type="arc"
       style="fill:#ff3131;fill-opacity:1;stroke:#222222;stroke-width:0;stroke-linecap:round;stroke-linejoin:round;stroke-miterlimit:4;stroke-opacity:1;stroke-dasharray:none"
       id="path3779"
       sodipodi:cx="252.53813"
       sodipodi:cy="585.67169"
       sodipodi:rx="63.63961"
       sodipodi:ry="63.63961"
       d="m 316.17774,585.67169 a 63.63961,63.63961 0 1 1 -127.27922,0 63.63961,63.63961 0 1 1 127.27922,0 z"
       transform="matrix(0.67343325,-0.73924803,0.73924803,0.67343325,-248.2321,469.14318)" />
    <path
       style="fill:#ff3131;fill-opacity:1;stroke:#222222;stroke-width:0;stroke-linecap:round;stroke-linejoin:round;stroke-miterlimit:4;stroke-opacity:1"
       d="m 601.75894,374.60879 c -8.39556,1.8269 -16.35064,5.58368 -23.1683,10.80267 -4.7111,3.57844 -8.90663,7.83102 -12.4106,12.59862 -4.02418,5.48936 -7.19039,11.64331 -9.02636,18.21049 -1.61916,5.41402 -2.38148,11.07735 -2.38299,16.72369 0.024,4.17662 0.49202,8.3432 1.39621,12.42072 0.98177,4.53618 2.53537,8.94801 4.52062,13.14053 3.24198,6.65628 7.74,12.74404 13.36181,17.58159 2.67336,2.30919 5.48519,4.46215 8.51515,6.28542 2.33237,1.40894 4.76389,2.66476 7.25503,3.76723 5.21269,2.31614 10.7664,3.83953 16.41947,4.58359 4.39023,0.58516 8.85183,0.66583 13.25436,0.15315 7.48234,-0.79143 14.86723,-2.95432 21.42109,-6.68638 4.79378,-2.80341 9.18458,-6.42555 12.42714,-10.96489 1.93401,-2.76968 3.41586,-5.83742 4.52425,-9.02429 1.85872,-5.28589 2.52903,-10.89927 2.88493,-16.46465 0.45572,-7.19707 0.376,-14.45155 -0.6719,-21.59618 -1.05974,-7.70192 -3.04308,-15.32501 -6.33643,-22.3844 -1.46472,-3.1657 -3.36891,-6.09872 -5.425,-8.90793 -1.82778,-2.33597 -3.71079,-4.65416 -5.89237,-6.67278 -5.77311,-5.22361 -12.29869,-9.80722 -19.69676,-12.39311 -4.1457,-1.42331 -8.52507,-2.21221 -12.91571,-2.09052 -2.69947,0.0516 -5.41115,0.3604 -8.05364,0.91743 z"
       id="path3759-7"
       inkscape:connector-curvature="0" />
    <path
       style="fill:#ff3131;fill-opacity:1;stroke:#222222;stroke-width:0;stroke-linecap:round;stroke-linejoin:round;stroke-miterlimit:4;stroke-opacity:1"
       d="m 474.71844,593.56066 c -4.88445,5.98005 -8.06656,13.27294 -9.54645,20.82695 -1.77753,9.19578 -0.79613,18.94851 3.08248,27.49859 4.58208,10.35702 12.96287,19.0979 23.38532,23.64369 8.0791,3.61827 17.16847,4.97597 25.94895,3.82023 2.91576,-0.23409 5.76328,-1.44018 7.81004,-3.55789 3.37288,-3.13071 5.99944,-6.94416 9.12879,-10.30288 6.81091,-7.78037 13.15516,-15.95776 19.31532,-24.25838 3.0841,-4.24466 3.94858,-9.73482 3.28742,-14.85658 -0.44124,-3.44458 -1.35513,-6.82928 -2.56665,-10.07989 -3.07003,-8.03775 -8.51205,-15.09539 -15.25506,-20.40262 -9.91357,-7.58461 -22.96336,-11.04163 -35.31113,-8.99405 -9.93919,1.52961 -19.34152,6.32587 -26.37049,13.52434 -1.01816,1.00048 -1.97179,2.06214 -2.90854,3.13849 z"
       id="path3779-4"
       inkscape:connector-curvature="0" />
    <path
       sodipodi:type="arc"
       style="fill:#ffffff;fill-opacity:0.55319148;stroke:none"
       id="path3858"
       sodipodi:cx="457.59909"
       sodipodi:cy="452.33157"
       sodipodi:rx="104.04572"
       sodipodi:ry="50.507626"
       d="m 561.64481,452.33157 a 104.04572,50.507626 0 1 1 -208.09144,0 104.04572,50.507626 0 1 1 208.09144,0 z"
       transform="matrix(1.2102096,-0.2091844,0.2091844,1.2102096,-107.39872,-25.41462)" />
  </g>
</svg>
